<svg xmlns="http://www.w3.org/2000/svg" xmlns:xlink="http://www.w3.org/1999/xlink" width="400" zoomAndPan="magnify" viewBox="0 0 300 50.999998" height="68" preserveAspectRatio="xMidYMid meet" version="1.0"><defs><g/><clipPath id="82b5822235"><path d="M 0 0 L 64.691406 0 L 64.691406 13 L 0 13 Z M 0 0 " clip-rule="nonzero"/></clipPath><clipPath id="17188375c2"><path d="M 0 5 L 64 5 L 64 50.628906 L 0 50.628906 Z M 0 5 " clip-rule="nonzero"/></clipPath></defs><g clip-path="url(#82b5822235)"><path fill="#ffffff" d="M 0.6875 12.941406 C 0.492188 12.941406 0.300781 12.851562 0.175781 12.679688 C -0.0195312 12.398438 0.046875 12.011719 0.324219 11.8125 C 0.988281 11.347656 17.019531 0.371094 63.789062 0.0976562 L 63.792969 0.0976562 C 64.136719 0.0976562 64.414062 0.375 64.417969 0.714844 C 64.417969 1.058594 64.144531 1.339844 63.796875 1.34375 C 17.503906 1.613281 1.207031 12.71875 1.042969 12.828125 C 0.9375 12.90625 0.8125 12.941406 0.6875 12.941406 " fill-opacity="1" fill-rule="nonzero"/></g><g clip-path="url(#17188375c2)"><path fill="#ffffff" d="M 57.683594 26.945312 C 57.128906 26.957031 56.578125 26.96875 56.027344 26.980469 C 53.753906 27.039062 51.546875 27.113281 49.398438 27.199219 C 48.839844 27.222656 48.289062 27.242188 47.738281 27.265625 L 47.738281 17.386719 C 47.738281 14.644531 49.96875 12.414062 52.710938 12.414062 C 55.453125 12.414062 57.683594 14.644531 57.683594 17.386719 Z M 45.472656 27.371094 C 44.914062 27.398438 44.363281 27.425781 43.8125 27.457031 C 41.992188 27.554688 40.222656 27.65625 38.511719 27.769531 C 37.953125 27.804688 37.402344 27.84375 36.851562 27.878906 L 36.851562 19.664062 C 36.851562 17.285156 38.785156 15.351562 41.160156 15.351562 C 43.539062 15.351562 45.472656 17.285156 45.472656 19.664062 Z M 33.855469 28.097656 C 33.296875 28.140625 32.742188 28.1875 32.199219 28.230469 C 30.351562 28.378906 28.585938 28.535156 26.894531 28.695312 C 26.335938 28.75 25.78125 28.800781 25.238281 28.855469 L 25.238281 21.320312 C 25.238281 18.941406 27.171875 17.007812 29.546875 17.007812 C 31.921875 17.007812 33.855469 18.941406 33.855469 21.320312 Z M 22.996094 29.085938 C 22.429688 29.144531 21.875 29.203125 21.332031 29.265625 C 19.429688 29.476562 17.660156 29.6875 16.035156 29.894531 C 15.464844 29.964844 14.910156 30.035156 14.375 30.105469 L 14.375 23.367188 C 14.375 20.988281 16.308594 19.054688 18.683594 19.054688 C 21.0625 19.054688 22.996094 20.988281 22.996094 23.367188 Z M 11.738281 30.46875 C 11.15625 30.550781 10.601562 30.632812 10.078125 30.710938 C 7.757812 31.054688 5.980469 31.355469 4.777344 31.566406 C 3.9375 31.714844 3.378906 31.820312 3.117188 31.871094 L 3.117188 25.132812 C 3.117188 22.757812 5.050781 20.824219 7.425781 20.824219 C 9.804688 20.824219 11.738281 22.757812 11.738281 25.132812 Z M 0.6875 16.75 L 0.6875 48.796875 L 2.007812 48.835938 L 2.007812 41.441406 C 2.007812 39.066406 3.941406 37.132812 6.316406 37.132812 C 8.695312 37.132812 10.628906 39.066406 10.628906 41.441406 L 10.628906 49.101562 L 13.621094 49.191406 L 13.621094 40.796875 C 13.621094 38.417969 15.554688 36.488281 17.933594 36.488281 C 20.308594 36.488281 22.242188 38.417969 22.242188 40.796875 L 22.242188 49.457031 L 25.238281 49.546875 L 25.238281 39.703125 C 25.238281 37.328125 27.171875 35.394531 29.546875 35.394531 C 31.921875 35.394531 33.855469 37.328125 33.855469 39.703125 L 33.855469 49.8125 L 36.851562 49.90625 L 36.851562 38.632812 C 36.851562 36.253906 38.785156 34.320312 41.160156 34.320312 C 43.539062 34.320312 45.472656 36.253906 45.472656 38.632812 L 45.472656 50.167969 L 47.738281 50.238281 L 47.738281 37.761719 C 47.738281 35.019531 49.96875 32.789062 52.710938 32.789062 C 55.453125 32.789062 57.683594 35.019531 57.683594 37.761719 L 57.683594 50.542969 L 63.792969 50.730469 L 63.792969 5.148438 C 16.679688 5.425781 0.6875 16.75 0.6875 16.75 " fill-opacity="1" fill-rule="nonzero"/></g><g fill="#ffffff" fill-opacity="1"><g transform="translate(69.13618, 29.344608)"><g/></g></g><g fill="#ffffff" fill-opacity="1"><g transform="translate(76.378366, 29.344608)"><g><path d="M 8.625 -19.984375 C 7.925781 -19.941406 7.414062 -19.863281 7.09375 -19.75 C 6.78125 -19.632812 6.566406 -19.410156 6.453125 -19.078125 C 6.335938 -18.753906 6.28125 -18.222656 6.28125 -17.484375 L 6.28125 -3.078125 C 6.28125 -2.335938 6.335938 -1.800781 6.453125 -1.46875 C 6.566406 -1.144531 6.78125 -0.929688 7.09375 -0.828125 C 7.414062 -0.722656 7.925781 -0.671875 8.625 -0.671875 L 10.75 -0.671875 C 11.945312 -0.671875 12.859375 -0.835938 13.484375 -1.171875 C 14.117188 -1.515625 14.582031 -2.0625 14.875 -2.8125 C 15.164062 -3.570312 15.378906 -4.664062 15.515625 -6.09375 L 16.171875 -6.09375 C 16.117188 -5.5 16.09375 -4.707031 16.09375 -3.71875 C 16.09375 -2.613281 16.160156 -1.375 16.296875 0 C 14.972656 -0.0625 12.753906 -0.09375 9.640625 -0.09375 C 5.921875 -0.09375 3.113281 -0.0625 1.21875 0 L 1.21875 -0.578125 C 1.914062 -0.617188 2.421875 -0.695312 2.734375 -0.8125 C 3.054688 -0.925781 3.273438 -1.144531 3.390625 -1.46875 C 3.515625 -1.800781 3.578125 -2.335938 3.578125 -3.078125 L 3.578125 -17.484375 C 3.578125 -18.222656 3.515625 -18.753906 3.390625 -19.078125 C 3.273438 -19.410156 3.054688 -19.632812 2.734375 -19.75 C 2.421875 -19.863281 1.914062 -19.941406 1.21875 -19.984375 L 1.21875 -20.5625 C 2.03125 -20.507812 3.269531 -20.484375 4.9375 -20.484375 C 6.488281 -20.484375 7.71875 -20.507812 8.625 -20.5625 Z M 8.625 -19.984375 "/></g></g></g><g fill="#ffffff" fill-opacity="1"><g transform="translate(93.453315, 29.344608)"><g><path d="M 13.453125 -3.484375 C 13.097656 -2.421875 12.441406 -1.503906 11.484375 -0.734375 C 10.523438 0.0234375 9.367188 0.40625 8.015625 0.40625 C 6.640625 0.40625 5.445312 0.09375 4.4375 -0.53125 C 3.4375 -1.164062 2.671875 -2.046875 2.140625 -3.171875 C 1.609375 -4.304688 1.34375 -5.617188 1.34375 -7.109375 C 1.34375 -8.796875 1.613281 -10.257812 2.15625 -11.5 C 2.695312 -12.738281 3.457031 -13.691406 4.4375 -14.359375 C 5.425781 -15.023438 6.582031 -15.359375 7.90625 -15.359375 C 9.644531 -15.359375 10.984375 -14.832031 11.921875 -13.78125 C 12.859375 -12.726562 13.328125 -11.125 13.328125 -8.96875 L 4.234375 -8.96875 C 4.179688 -8.425781 4.15625 -7.804688 4.15625 -7.109375 C 4.15625 -5.835938 4.363281 -4.726562 4.78125 -3.78125 C 5.195312 -2.832031 5.75 -2.097656 6.4375 -1.578125 C 7.125 -1.066406 7.84375 -0.8125 8.59375 -0.8125 C 9.519531 -0.8125 10.34375 -1.035156 11.0625 -1.484375 C 11.78125 -1.929688 12.382812 -2.675781 12.875 -3.71875 Z M 7.78125 -14.8125 C 6.875 -14.8125 6.085938 -14.363281 5.421875 -13.46875 C 4.765625 -12.582031 4.363281 -11.269531 4.21875 -9.53125 L 10.546875 -9.53125 C 10.585938 -11.039062 10.367188 -12.296875 9.890625 -13.296875 C 9.410156 -14.304688 8.707031 -14.8125 7.78125 -14.8125 Z M 7.78125 -14.8125 "/></g></g></g><g fill="#ffffff" fill-opacity="1"><g transform="translate(108.147058, 29.344608)"><g><path d="M 13.6875 -12.34375 C 13.332031 -12.34375 13.035156 -12.457031 12.796875 -12.6875 C 12.554688 -12.925781 12.4375 -13.265625 12.4375 -13.703125 C 12.4375 -14.097656 12.53125 -14.546875 12.71875 -15.046875 C 12.21875 -14.835938 11.820312 -14.597656 11.53125 -14.328125 C 11.238281 -14.066406 10.976562 -13.742188 10.75 -13.359375 C 11.195312 -12.679688 11.421875 -11.820312 11.421875 -10.78125 C 11.421875 -9.25 10.953125 -8.097656 10.015625 -7.328125 C 9.085938 -6.566406 7.859375 -6.1875 6.328125 -6.1875 L 6.296875 -6.1875 C 5.660156 -5.820312 5.175781 -5.484375 4.84375 -5.171875 C 4.519531 -4.859375 4.359375 -4.507812 4.359375 -4.125 C 4.359375 -3.5 4.820312 -3.1875 5.75 -3.1875 L 9.375 -3.1875 C 10.695312 -3.1875 11.785156 -2.898438 12.640625 -2.328125 C 13.503906 -1.765625 13.9375 -0.910156 13.9375 0.234375 C 13.9375 1.160156 13.632812 2.019531 13.03125 2.8125 C 12.4375 3.613281 11.554688 4.253906 10.390625 4.734375 C 9.234375 5.210938 7.832031 5.453125 6.1875 5.453125 C 4.5 5.453125 3.085938 5.195312 1.953125 4.6875 C 0.828125 4.175781 0.265625 3.414062 0.265625 2.40625 C 0.265625 1.75 0.53125 1.175781 1.0625 0.6875 C 1.59375 0.207031 2.332031 -0.164062 3.28125 -0.4375 L 3.453125 0.03125 C 3.023438 0.164062 2.6875 0.4375 2.4375 0.84375 C 2.1875 1.25 2.0625 1.703125 2.0625 2.203125 C 2.0625 3.097656 2.460938 3.78125 3.265625 4.25 C 4.066406 4.726562 5.144531 4.96875 6.5 4.96875 C 8 4.96875 9.28125 4.679688 10.34375 4.109375 C 11.40625 3.535156 11.9375 2.648438 11.9375 1.453125 C 11.9375 0.753906 11.6875 0.210938 11.1875 -0.171875 C 10.695312 -0.554688 9.820312 -0.75 8.5625 -0.75 L 6.421875 -0.75 C 5.273438 -0.75 4.359375 -0.894531 3.671875 -1.1875 C 2.984375 -1.476562 2.640625 -2.0625 2.640625 -2.9375 C 2.640625 -3.53125 2.859375 -4.097656 3.296875 -4.640625 C 3.734375 -5.179688 4.453125 -5.71875 5.453125 -6.25 C 4.179688 -6.382812 3.160156 -6.828125 2.390625 -7.578125 C 1.628906 -8.335938 1.25 -9.40625 1.25 -10.78125 C 1.25 -12.3125 1.710938 -13.457031 2.640625 -14.21875 C 3.566406 -14.976562 4.796875 -15.359375 6.328125 -15.359375 C 8.148438 -15.359375 9.5 -14.859375 10.375 -13.859375 C 10.738281 -14.378906 11.203125 -14.804688 11.765625 -15.140625 C 12.328125 -15.484375 12.890625 -15.65625 13.453125 -15.65625 C 13.953125 -15.65625 14.359375 -15.507812 14.671875 -15.21875 C 14.984375 -14.925781 15.140625 -14.507812 15.140625 -13.96875 C 15.140625 -13.425781 14.988281 -13.019531 14.6875 -12.75 C 14.382812 -12.476562 14.050781 -12.34375 13.6875 -12.34375 Z M 6.328125 -6.703125 C 7.109375 -6.703125 7.695312 -7.007812 8.09375 -7.625 C 8.488281 -8.238281 8.6875 -9.289062 8.6875 -10.78125 C 8.6875 -12.269531 8.488281 -13.316406 8.09375 -13.921875 C 7.695312 -14.535156 7.109375 -14.84375 6.328125 -14.84375 C 5.554688 -14.84375 4.972656 -14.535156 4.578125 -13.921875 C 4.179688 -13.316406 3.984375 -12.269531 3.984375 -10.78125 C 3.984375 -9.289062 4.179688 -8.238281 4.578125 -7.625 C 4.972656 -7.007812 5.554688 -6.703125 6.328125 -6.703125 Z M 6.328125 -6.703125 "/></g></g></g><g fill="#ffffff" fill-opacity="1"><g transform="translate(123.479667, 29.344608)"><g><path d="M 4.734375 0.203125 C 3.515625 0.203125 2.609375 -0.0976562 2.015625 -0.703125 C 1.429688 -1.316406 1.140625 -2.164062 1.140625 -3.25 C 1.140625 -4.125 1.375 -4.84375 1.84375 -5.40625 C 2.320312 -5.96875 2.882812 -6.410156 3.53125 -6.734375 C 4.175781 -7.066406 5.03125 -7.414062 6.09375 -7.78125 C 7.175781 -8.15625 7.976562 -8.492188 8.5 -8.796875 C 9.03125 -9.109375 9.296875 -9.523438 9.296875 -10.046875 L 9.296875 -11.84375 C 9.296875 -12.96875 9.054688 -13.738281 8.578125 -14.15625 C 8.109375 -14.570312 7.445312 -14.78125 6.59375 -14.78125 C 5.238281 -14.78125 4.28125 -14.429688 3.71875 -13.734375 C 4.101562 -13.640625 4.425781 -13.4375 4.6875 -13.125 C 4.945312 -12.820312 5.078125 -12.4375 5.078125 -11.96875 C 5.078125 -11.476562 4.921875 -11.09375 4.609375 -10.8125 C 4.304688 -10.539062 3.910156 -10.40625 3.421875 -10.40625 C 2.878906 -10.40625 2.472656 -10.570312 2.203125 -10.90625 C 1.929688 -11.25 1.796875 -11.660156 1.796875 -12.140625 C 1.796875 -12.609375 1.90625 -12.992188 2.125 -13.296875 C 2.351562 -13.609375 2.691406 -13.921875 3.140625 -14.234375 C 3.597656 -14.566406 4.1875 -14.835938 4.90625 -15.046875 C 5.625 -15.253906 6.410156 -15.359375 7.265625 -15.359375 C 8.773438 -15.359375 9.914062 -15.003906 10.6875 -14.296875 C 11.175781 -13.847656 11.5 -13.304688 11.65625 -12.671875 C 11.820312 -12.046875 11.90625 -11.222656 11.90625 -10.203125 L 11.90625 -2.125 C 11.90625 -1.632812 11.972656 -1.28125 12.109375 -1.0625 C 12.242188 -0.851562 12.476562 -0.75 12.8125 -0.75 C 13.039062 -0.75 13.253906 -0.800781 13.453125 -0.90625 C 13.660156 -1.019531 13.878906 -1.171875 14.109375 -1.359375 L 14.4375 -0.875 C 13.9375 -0.488281 13.503906 -0.210938 13.140625 -0.046875 C 12.785156 0.117188 12.335938 0.203125 11.796875 0.203125 C 10.867188 0.203125 10.21875 -0.0234375 9.84375 -0.484375 C 9.476562 -0.953125 9.296875 -1.582031 9.296875 -2.375 C 8.710938 -1.40625 8.039062 -0.734375 7.28125 -0.359375 C 6.53125 0.015625 5.679688 0.203125 4.734375 0.203125 Z M 6.015625 -0.953125 C 7.296875 -0.953125 8.390625 -1.691406 9.296875 -3.171875 L 9.296875 -8.859375 C 9.117188 -8.585938 8.875 -8.363281 8.5625 -8.1875 C 8.257812 -8.019531 7.785156 -7.789062 7.140625 -7.5 C 6.410156 -7.1875 5.816406 -6.890625 5.359375 -6.609375 C 4.898438 -6.328125 4.503906 -5.941406 4.171875 -5.453125 C 3.847656 -4.972656 3.6875 -4.359375 3.6875 -3.609375 C 3.6875 -2.734375 3.898438 -2.070312 4.328125 -1.625 C 4.753906 -1.175781 5.316406 -0.953125 6.015625 -0.953125 Z M 6.015625 -0.953125 "/></g></g></g><g fill="#ffffff" fill-opacity="1"><g transform="translate(137.941094, 29.344608)"><g><path d="M 8.109375 -15.359375 C 9.398438 -15.359375 10.519531 -15.050781 11.46875 -14.4375 C 12.382812 -13.832031 12.84375 -13.085938 12.84375 -12.203125 C 12.84375 -11.691406 12.695312 -11.289062 12.40625 -11 C 12.113281 -10.71875 11.742188 -10.578125 11.296875 -10.578125 C 10.847656 -10.578125 10.46875 -10.707031 10.15625 -10.96875 C 9.851562 -11.226562 9.703125 -11.582031 9.703125 -12.03125 C 9.703125 -12.4375 9.816406 -12.78125 10.046875 -13.0625 C 10.285156 -13.34375 10.578125 -13.53125 10.921875 -13.625 C 10.722656 -13.96875 10.378906 -14.253906 9.890625 -14.484375 C 9.398438 -14.722656 8.875 -14.84375 8.3125 -14.84375 C 7.59375 -14.84375 6.921875 -14.613281 6.296875 -14.15625 C 5.679688 -13.707031 5.171875 -12.953125 4.765625 -11.890625 C 4.359375 -10.835938 4.15625 -9.445312 4.15625 -7.71875 C 4.15625 -5.320312 4.539062 -3.578125 5.3125 -2.484375 C 6.09375 -1.390625 7.101562 -0.84375 8.34375 -0.84375 C 9.164062 -0.84375 9.953125 -1.082031 10.703125 -1.5625 C 11.453125 -2.050781 12.066406 -2.804688 12.546875 -3.828125 L 13.09375 -3.625 C 12.769531 -2.519531 12.15625 -1.570312 11.25 -0.78125 C 10.351562 0.0078125 9.1875 0.40625 7.75 0.40625 C 6.550781 0.40625 5.460938 0.0976562 4.484375 -0.515625 C 3.503906 -1.140625 2.734375 -2.035156 2.171875 -3.203125 C 1.617188 -4.378906 1.34375 -5.742188 1.34375 -7.296875 C 1.34375 -8.859375 1.625 -10.25 2.1875 -11.46875 C 2.757812 -12.6875 3.554688 -13.640625 4.578125 -14.328125 C 5.609375 -15.015625 6.785156 -15.359375 8.109375 -15.359375 Z M 8.109375 -15.359375 "/></g></g></g><g fill="#ffffff" fill-opacity="1"><g transform="translate(152.05406, 29.344608)"><g><path d="M 4.15625 -22.21875 C 4.65625 -22.21875 5.085938 -22.03125 5.453125 -21.65625 C 5.828125 -21.289062 6.015625 -20.859375 6.015625 -20.359375 C 6.015625 -19.859375 5.828125 -19.421875 5.453125 -19.046875 C 5.085938 -18.679688 4.65625 -18.5 4.15625 -18.5 C 3.65625 -18.5 3.21875 -18.679688 2.84375 -19.046875 C 2.476562 -19.421875 2.296875 -19.859375 2.296875 -20.359375 C 2.296875 -20.859375 2.476562 -21.289062 2.84375 -21.65625 C 3.21875 -22.03125 3.65625 -22.21875 4.15625 -22.21875 Z M 5.671875 -2.703125 C 5.671875 -1.910156 5.832031 -1.363281 6.15625 -1.0625 C 6.488281 -0.757812 7.0625 -0.609375 7.875 -0.609375 L 7.875 0 C 6.09375 -0.0703125 4.921875 -0.109375 4.359375 -0.109375 C 3.796875 -0.109375 2.625 -0.0703125 0.84375 0 L 0.84375 -0.609375 C 1.65625 -0.609375 2.222656 -0.757812 2.546875 -1.0625 C 2.878906 -1.363281 3.046875 -1.910156 3.046875 -2.703125 L 3.046875 -11.796875 C 3.046875 -12.679688 2.878906 -13.328125 2.546875 -13.734375 C 2.222656 -14.140625 1.65625 -14.34375 0.84375 -14.34375 L 0.84375 -14.953125 C 1.457031 -14.898438 2.054688 -14.875 2.640625 -14.875 C 3.859375 -14.875 4.867188 -15.007812 5.671875 -15.28125 Z M 5.671875 -2.703125 "/></g></g></g><g fill="#ffffff" fill-opacity="1"><g transform="translate(160.56249, 29.344608)"><g><path d="M 13.453125 -3.484375 C 13.097656 -2.421875 12.441406 -1.503906 11.484375 -0.734375 C 10.523438 0.0234375 9.367188 0.40625 8.015625 0.40625 C 6.640625 0.40625 5.445312 0.09375 4.4375 -0.53125 C 3.4375 -1.164062 2.671875 -2.046875 2.140625 -3.171875 C 1.609375 -4.304688 1.34375 -5.617188 1.34375 -7.109375 C 1.34375 -8.796875 1.613281 -10.257812 2.15625 -11.5 C 2.695312 -12.738281 3.457031 -13.691406 4.4375 -14.359375 C 5.425781 -15.023438 6.582031 -15.359375 7.90625 -15.359375 C 9.644531 -15.359375 10.984375 -14.832031 11.921875 -13.78125 C 12.859375 -12.726562 13.328125 -11.125 13.328125 -8.96875 L 4.234375 -8.96875 C 4.179688 -8.425781 4.15625 -7.804688 4.15625 -7.109375 C 4.15625 -5.835938 4.363281 -4.726562 4.78125 -3.78125 C 5.195312 -2.832031 5.75 -2.097656 6.4375 -1.578125 C 7.125 -1.066406 7.84375 -0.8125 8.59375 -0.8125 C 9.519531 -0.8125 10.34375 -1.035156 11.0625 -1.484375 C 11.78125 -1.929688 12.382812 -2.675781 12.875 -3.71875 Z M 7.78125 -14.8125 C 6.875 -14.8125 6.085938 -14.363281 5.421875 -13.46875 C 4.765625 -12.582031 4.363281 -11.269531 4.21875 -9.53125 L 10.546875 -9.53125 C 10.585938 -11.039062 10.367188 -12.296875 9.890625 -13.296875 C 9.410156 -14.304688 8.707031 -14.8125 7.78125 -14.8125 Z M 7.78125 -14.8125 "/></g></g></g><g fill="#ffffff" fill-opacity="1"><g transform="translate(175.256233, 29.344608)"><g><path d="M 6.046875 -15.359375 C 6.742188 -15.359375 7.363281 -15.253906 7.90625 -15.046875 C 8.445312 -14.835938 8.878906 -14.585938 9.203125 -14.296875 C 9.421875 -14.140625 9.597656 -14.0625 9.734375 -14.0625 C 10.078125 -14.0625 10.289062 -14.488281 10.375 -15.34375 L 11.03125 -15.34375 C 10.957031 -14.382812 10.921875 -12.738281 10.921875 -10.40625 L 10.25 -10.40625 C 10.039062 -11.675781 9.628906 -12.726562 9.015625 -13.5625 C 8.410156 -14.394531 7.503906 -14.8125 6.296875 -14.8125 C 5.597656 -14.8125 5.023438 -14.613281 4.578125 -14.21875 C 4.140625 -13.820312 3.921875 -13.273438 3.921875 -12.578125 C 3.921875 -11.898438 4.148438 -11.332031 4.609375 -10.875 C 5.078125 -10.425781 5.828125 -9.878906 6.859375 -9.234375 C 7.023438 -9.140625 7.285156 -8.976562 7.640625 -8.75 C 8.523438 -8.164062 9.238281 -7.648438 9.78125 -7.203125 C 10.332031 -6.753906 10.773438 -6.238281 11.109375 -5.65625 C 11.453125 -5.082031 11.625 -4.414062 11.625 -3.65625 C 11.625 -2.382812 11.144531 -1.390625 10.1875 -0.671875 C 9.226562 0.046875 8.050781 0.40625 6.65625 0.40625 C 5.78125 0.40625 5.015625 0.269531 4.359375 0 C 3.929688 -0.207031 3.535156 -0.46875 3.171875 -0.78125 C 3.085938 -0.863281 3 -0.90625 2.90625 -0.90625 C 2.769531 -0.90625 2.644531 -0.804688 2.53125 -0.609375 C 2.425781 -0.410156 2.347656 -0.140625 2.296875 0.203125 L 1.625 0.203125 C 1.707031 -0.898438 1.75 -2.835938 1.75 -5.609375 L 2.40625 -5.609375 C 2.625 -3.785156 3.015625 -2.421875 3.578125 -1.515625 C 4.140625 -0.617188 5.097656 -0.171875 6.453125 -0.171875 C 7.128906 -0.171875 7.726562 -0.394531 8.25 -0.84375 C 8.769531 -1.289062 9.03125 -1.988281 9.03125 -2.9375 C 9.03125 -3.6875 8.773438 -4.320312 8.265625 -4.84375 C 7.753906 -5.375 6.914062 -6.003906 5.75 -6.734375 C 4.800781 -7.335938 4.066406 -7.832031 3.546875 -8.21875 C 3.035156 -8.601562 2.609375 -9.078125 2.265625 -9.640625 C 1.921875 -10.203125 1.75 -10.863281 1.75 -11.625 C 1.75 -12.84375 2.15625 -13.769531 2.96875 -14.40625 C 3.78125 -15.039062 4.804688 -15.359375 6.046875 -15.359375 Z M 6.046875 -15.359375 "/></g></g></g><g fill="#ffffff" fill-opacity="1"><g transform="translate(188.23668, 29.344608)"><g/></g></g><g fill="#ffffff" fill-opacity="1"><g transform="translate(195.4674, 29.344608)"><g><path d="M 7.953125 -15.359375 C 9.929688 -15.359375 11.523438 -14.703125 12.734375 -13.390625 C 13.941406 -12.085938 14.546875 -10.113281 14.546875 -7.46875 C 14.546875 -4.8125 13.941406 -2.832031 12.734375 -1.53125 C 11.523438 -0.238281 9.929688 0.40625 7.953125 0.40625 C 5.984375 0.40625 4.390625 -0.238281 3.171875 -1.53125 C 1.960938 -2.832031 1.359375 -4.8125 1.359375 -7.46875 C 1.359375 -10.113281 1.960938 -12.085938 3.171875 -13.390625 C 4.390625 -14.703125 5.984375 -15.359375 7.953125 -15.359375 Z M 7.953125 -14.78125 C 6.796875 -14.78125 5.878906 -14.1875 5.203125 -13 C 4.523438 -11.8125 4.1875 -9.96875 4.1875 -7.46875 C 4.1875 -4.96875 4.523438 -3.125 5.203125 -1.9375 C 5.878906 -0.757812 6.796875 -0.171875 7.953125 -0.171875 C 9.117188 -0.171875 10.039062 -0.757812 10.71875 -1.9375 C 11.394531 -3.125 11.734375 -4.96875 11.734375 -7.46875 C 11.734375 -9.96875 11.394531 -11.8125 10.71875 -13 C 10.039062 -14.1875 9.117188 -14.78125 7.953125 -14.78125 Z M 7.953125 -14.78125 "/></g></g></g><g fill="#ffffff" fill-opacity="1"><g transform="translate(211.380785, 29.344608)"><g><path d="M 8.015625 -22.71875 C 9.023438 -22.71875 9.867188 -22.457031 10.546875 -21.9375 C 11.140625 -21.445312 11.4375 -20.84375 11.4375 -20.125 C 11.4375 -19.6875 11.289062 -19.320312 11 -19.03125 C 10.71875 -18.738281 10.351562 -18.59375 9.90625 -18.59375 C 9.457031 -18.59375 9.078125 -18.734375 8.765625 -19.015625 C 8.460938 -19.296875 8.3125 -19.675781 8.3125 -20.15625 C 8.3125 -20.5625 8.421875 -20.890625 8.640625 -21.140625 C 8.859375 -21.398438 9.15625 -21.566406 9.53125 -21.640625 C 9.46875 -21.835938 9.3125 -21.992188 9.0625 -22.109375 C 8.8125 -22.222656 8.492188 -22.28125 8.109375 -22.28125 C 7.679688 -22.28125 7.300781 -22.179688 6.96875 -21.984375 C 6.644531 -21.796875 6.394531 -21.535156 6.21875 -21.203125 C 6 -20.816406 5.851562 -20.242188 5.78125 -19.484375 C 5.71875 -18.734375 5.6875 -17.46875 5.6875 -15.6875 L 5.6875 -14.9375 L 8.796875 -14.9375 L 8.796875 -14.34375 L 5.6875 -14.34375 L 5.6875 -2.984375 C 5.6875 -2.097656 5.941406 -1.476562 6.453125 -1.125 C 6.972656 -0.78125 7.742188 -0.609375 8.765625 -0.609375 L 8.765625 0 L 8.078125 -0.03125 C 6.097656 -0.0820312 4.835938 -0.109375 4.296875 -0.109375 C 3.796875 -0.109375 2.65625 -0.0703125 0.875 0 L 0.875 -0.609375 C 1.6875 -0.609375 2.253906 -0.757812 2.578125 -1.0625 C 2.910156 -1.363281 3.078125 -1.910156 3.078125 -2.703125 L 3.078125 -14.34375 L 0.75 -14.34375 L 0.75 -14.9375 L 3.078125 -14.9375 C 3.078125 -16.632812 3.179688 -17.945312 3.390625 -18.875 C 3.609375 -19.8125 4 -20.609375 4.5625 -21.265625 C 4.945312 -21.710938 5.4375 -22.066406 6.03125 -22.328125 C 6.632812 -22.585938 7.296875 -22.71875 8.015625 -22.71875 Z M 8.015625 -22.71875 "/></g></g></g><g fill="#ffffff" fill-opacity="1"><g transform="translate(221.021744, 29.344608)"><g/></g></g><g fill="#ffffff" fill-opacity="1"><g transform="translate(228.252464, 29.344608)"><g><path d="M 17.203125 -20.5625 C 17.066406 -19.1875 17 -17.945312 17 -16.84375 C 17 -15.875 17.023438 -15.082031 17.078125 -14.46875 L 16.40625 -14.46875 C 16.25 -15.957031 16.054688 -17.0625 15.828125 -17.78125 C 15.597656 -18.507812 15.191406 -19.039062 14.609375 -19.375 C 14.023438 -19.71875 13.132812 -19.890625 11.9375 -19.890625 L 10.375 -19.890625 L 10.375 -3.375 C 10.375 -2.5625 10.445312 -1.96875 10.59375 -1.59375 C 10.75 -1.226562 11.019531 -0.976562 11.40625 -0.84375 C 11.800781 -0.707031 12.429688 -0.617188 13.296875 -0.578125 L 13.296875 0 C 12.296875 -0.0625 10.875 -0.09375 9.03125 -0.09375 C 7.09375 -0.09375 5.660156 -0.0625 4.734375 0 L 4.734375 -0.578125 C 5.609375 -0.617188 6.238281 -0.707031 6.625 -0.84375 C 7.007812 -0.976562 7.28125 -1.226562 7.4375 -1.59375 C 7.59375 -1.96875 7.671875 -2.5625 7.671875 -3.375 L 7.671875 -19.890625 L 6.09375 -19.890625 C 4.894531 -19.890625 4.003906 -19.71875 3.421875 -19.375 C 2.847656 -19.039062 2.441406 -18.507812 2.203125 -17.78125 C 1.972656 -17.0625 1.78125 -15.957031 1.625 -14.46875 L 0.953125 -14.46875 C 1.015625 -15.082031 1.046875 -15.875 1.046875 -16.84375 C 1.046875 -17.945312 0.976562 -19.1875 0.84375 -20.5625 C 2.445312 -20.507812 5.175781 -20.484375 9.03125 -20.484375 C 12.863281 -20.484375 15.585938 -20.507812 17.203125 -20.5625 Z M 17.203125 -20.5625 "/></g></g></g><g fill="#ffffff" fill-opacity="1"><g transform="translate(246.285695, 29.344608)"><g><path d="M 4.15625 -22.21875 C 4.65625 -22.21875 5.085938 -22.03125 5.453125 -21.65625 C 5.828125 -21.289062 6.015625 -20.859375 6.015625 -20.359375 C 6.015625 -19.859375 5.828125 -19.421875 5.453125 -19.046875 C 5.085938 -18.679688 4.65625 -18.5 4.15625 -18.5 C 3.65625 -18.5 3.21875 -18.679688 2.84375 -19.046875 C 2.476562 -19.421875 2.296875 -19.859375 2.296875 -20.359375 C 2.296875 -20.859375 2.476562 -21.289062 2.84375 -21.65625 C 3.21875 -22.03125 3.65625 -22.21875 4.15625 -22.21875 Z M 5.671875 -2.703125 C 5.671875 -1.910156 5.832031 -1.363281 6.15625 -1.0625 C 6.488281 -0.757812 7.0625 -0.609375 7.875 -0.609375 L 7.875 0 C 6.09375 -0.0703125 4.921875 -0.109375 4.359375 -0.109375 C 3.796875 -0.109375 2.625 -0.0703125 0.84375 0 L 0.84375 -0.609375 C 1.65625 -0.609375 2.222656 -0.757812 2.546875 -1.0625 C 2.878906 -1.363281 3.046875 -1.910156 3.046875 -2.703125 L 3.046875 -11.796875 C 3.046875 -12.679688 2.878906 -13.328125 2.546875 -13.734375 C 2.222656 -14.140625 1.65625 -14.34375 0.84375 -14.34375 L 0.84375 -14.953125 C 1.457031 -14.898438 2.054688 -14.875 2.640625 -14.875 C 3.859375 -14.875 4.867188 -15.007812 5.671875 -15.28125 Z M 5.671875 -2.703125 "/></g></g></g><g fill="#ffffff" fill-opacity="1"><g transform="translate(254.794124, 29.344608)"><g><path d="M 23.15625 -2.703125 C 23.15625 -1.910156 23.316406 -1.363281 23.640625 -1.0625 C 23.972656 -0.757812 24.546875 -0.609375 25.359375 -0.609375 L 25.359375 0 C 23.578125 -0.0703125 22.414062 -0.109375 21.875 -0.109375 C 21.332031 -0.109375 20.25 -0.0703125 18.625 0 L 18.625 -0.609375 C 19.332031 -0.609375 19.828125 -0.757812 20.109375 -1.0625 C 20.390625 -1.363281 20.53125 -1.910156 20.53125 -2.703125 L 20.53125 -11.09375 C 20.53125 -11.832031 20.488281 -12.425781 20.40625 -12.875 C 20.320312 -13.332031 20.117188 -13.707031 19.796875 -14 C 19.472656 -14.289062 18.984375 -14.4375 18.328125 -14.4375 C 17.585938 -14.4375 16.914062 -14.203125 16.3125 -13.734375 C 15.71875 -13.273438 15.25 -12.640625 14.90625 -11.828125 C 14.570312 -11.023438 14.40625 -10.140625 14.40625 -9.171875 L 14.40625 -2.703125 C 14.40625 -1.910156 14.566406 -1.363281 14.890625 -1.0625 C 15.222656 -0.757812 15.796875 -0.609375 16.609375 -0.609375 L 16.609375 0 C 14.828125 -0.0703125 13.664062 -0.109375 13.125 -0.109375 C 12.582031 -0.109375 11.5 -0.0703125 9.875 0 L 9.875 -0.609375 C 10.59375 -0.609375 11.09375 -0.757812 11.375 -1.0625 C 11.65625 -1.363281 11.796875 -1.910156 11.796875 -2.703125 L 11.796875 -11.09375 C 11.796875 -11.832031 11.75 -12.425781 11.65625 -12.875 C 11.570312 -13.332031 11.367188 -13.707031 11.046875 -14 C 10.734375 -14.289062 10.242188 -14.4375 9.578125 -14.4375 C 8.847656 -14.4375 8.179688 -14.203125 7.578125 -13.734375 C 6.984375 -13.273438 6.515625 -12.640625 6.171875 -11.828125 C 5.835938 -11.015625 5.671875 -10.125 5.671875 -9.15625 L 5.671875 -2.703125 C 5.671875 -1.910156 5.804688 -1.363281 6.078125 -1.0625 C 6.359375 -0.757812 6.859375 -0.609375 7.578125 -0.609375 L 7.578125 0 C 5.953125 -0.0703125 4.867188 -0.109375 4.328125 -0.109375 C 3.785156 -0.109375 2.625 -0.0703125 0.84375 0 L 0.84375 -0.609375 C 1.65625 -0.609375 2.222656 -0.757812 2.546875 -1.0625 C 2.878906 -1.363281 3.046875 -1.910156 3.046875 -2.703125 L 3.046875 -11.796875 C 3.046875 -12.679688 2.878906 -13.328125 2.546875 -13.734375 C 2.222656 -14.140625 1.65625 -14.34375 0.84375 -14.34375 L 0.84375 -14.953125 C 1.457031 -14.898438 2.054688 -14.875 2.640625 -14.875 C 3.859375 -14.875 4.867188 -15.007812 5.671875 -15.28125 L 5.671875 -11.84375 C 6.128906 -13.050781 6.785156 -13.9375 7.640625 -14.5 C 8.492188 -15.070312 9.421875 -15.359375 10.421875 -15.359375 C 11.742188 -15.359375 12.753906 -14.992188 13.453125 -14.265625 C 13.929688 -13.753906 14.226562 -12.976562 14.34375 -11.9375 C 14.832031 -13.15625 15.5 -14.03125 16.34375 -14.5625 C 17.195312 -15.09375 18.140625 -15.359375 19.171875 -15.359375 C 20.484375 -15.359375 21.488281 -14.992188 22.1875 -14.265625 C 22.539062 -13.878906 22.789062 -13.382812 22.9375 -12.78125 C 23.082031 -12.175781 23.15625 -11.398438 23.15625 -10.453125 Z M 23.15625 -2.703125 "/></g></g></g><g fill="#ffffff" fill-opacity="1"><g transform="translate(280.580761, 29.344608)"><g><path d="M 13.453125 -3.484375 C 13.097656 -2.421875 12.441406 -1.503906 11.484375 -0.734375 C 10.523438 0.0234375 9.367188 0.40625 8.015625 0.40625 C 6.640625 0.40625 5.445312 0.09375 4.4375 -0.53125 C 3.4375 -1.164062 2.671875 -2.046875 2.140625 -3.171875 C 1.609375 -4.304688 1.34375 -5.617188 1.34375 -7.109375 C 1.34375 -8.796875 1.613281 -10.257812 2.15625 -11.5 C 2.695312 -12.738281 3.457031 -13.691406 4.4375 -14.359375 C 5.425781 -15.023438 6.582031 -15.359375 7.90625 -15.359375 C 9.644531 -15.359375 10.984375 -14.832031 11.921875 -13.78125 C 12.859375 -12.726562 13.328125 -11.125 13.328125 -8.96875 L 4.234375 -8.96875 C 4.179688 -8.425781 4.15625 -7.804688 4.15625 -7.109375 C 4.15625 -5.835938 4.363281 -4.726562 4.78125 -3.78125 C 5.195312 -2.832031 5.75 -2.097656 6.4375 -1.578125 C 7.125 -1.066406 7.84375 -0.8125 8.59375 -0.8125 C 9.519531 -0.8125 10.34375 -1.035156 11.0625 -1.484375 C 11.78125 -1.929688 12.382812 -2.675781 12.875 -3.71875 Z M 7.78125 -14.8125 C 6.875 -14.8125 6.085938 -14.363281 5.421875 -13.46875 C 4.765625 -12.582031 4.363281 -11.269531 4.21875 -9.53125 L 10.546875 -9.53125 C 10.585938 -11.039062 10.367188 -12.296875 9.890625 -13.296875 C 9.410156 -14.304688 8.707031 -14.8125 7.78125 -14.8125 Z M 7.78125 -14.8125 "/></g></g></g><g fill="#ffffff" fill-opacity="1"><g transform="translate(139.05156, 48.351886)"><g><path d="M 2.46875 -3.25 C 2.3125 -3.25 2.179688 -3.300781 2.078125 -3.40625 C 1.972656 -3.507812 1.921875 -3.644531 1.921875 -3.8125 C 1.921875 -3.96875 1.972656 -4.09375 2.078125 -4.1875 C 2.179688 -4.289062 2.3125 -4.34375 2.46875 -4.34375 C 2.625 -4.34375 2.753906 -4.289062 2.859375 -4.1875 C 2.960938 -4.09375 3.015625 -3.96875 3.015625 -3.8125 C 3.015625 -3.644531 2.960938 -3.507812 2.859375 -3.40625 C 2.753906 -3.300781 2.625 -3.25 2.46875 -3.25 Z M 2.46875 -3.25 "/></g></g></g><g fill="#ffffff" fill-opacity="1"><g transform="translate(148.975243, 48.351886)"><g><path d="M 8.015625 -0.25 L 8.015625 0 L 5.640625 0 L 5.640625 -0.25 L 6.1875 -0.3125 C 6.289062 -0.332031 6.351562 -0.363281 6.375 -0.40625 C 6.394531 -0.445312 6.40625 -0.578125 6.40625 -0.796875 L 6.40625 -6.15625 L 4.34375 -0.796875 L 3.671875 -0.796875 L 1.609375 -6.15625 L 1.609375 -0.796875 C 1.609375 -0.578125 1.613281 -0.445312 1.625 -0.40625 C 1.644531 -0.363281 1.707031 -0.332031 1.8125 -0.3125 L 2.359375 -0.25 L 2.359375 0 L 0.46875 0 L 0.46875 -0.25 L 1.015625 -0.3125 C 1.117188 -0.332031 1.179688 -0.363281 1.203125 -0.40625 C 1.222656 -0.445312 1.234375 -0.578125 1.234375 -0.796875 L 1.234375 -5.921875 C 1.234375 -6.148438 1.222656 -6.285156 1.203125 -6.328125 C 1.179688 -6.367188 1.117188 -6.394531 1.015625 -6.40625 L 0.46875 -6.453125 L 0.46875 -6.71875 L 2.28125 -6.71875 L 4.265625 -1.53125 L 6.265625 -6.71875 L 8.015625 -6.71875 L 8.015625 -6.453125 L 7.484375 -6.40625 C 7.367188 -6.394531 7.300781 -6.367188 7.28125 -6.328125 C 7.269531 -6.285156 7.265625 -6.148438 7.265625 -5.921875 L 7.265625 -0.796875 C 7.265625 -0.578125 7.269531 -0.445312 7.28125 -0.40625 C 7.300781 -0.363281 7.367188 -0.332031 7.484375 -0.3125 Z M 8.015625 -0.25 "/></g></g></g><g fill="#ffffff" fill-opacity="1"><g transform="translate(162.460145, 48.351886)"><g><path d="M 4.46875 -6.453125 L 4.46875 -6.71875 L 6.359375 -6.71875 L 6.359375 -6.453125 L 5.8125 -6.40625 C 5.707031 -6.394531 5.644531 -6.367188 5.625 -6.328125 C 5.601562 -6.285156 5.59375 -6.148438 5.59375 -5.921875 L 5.59375 -2.28125 C 5.59375 -1.53125 5.421875 -0.945312 5.078125 -0.53125 C 4.734375 -0.113281 4.203125 0.09375 3.484375 0.09375 C 2.710938 0.09375 2.117188 -0.128906 1.703125 -0.578125 C 1.296875 -1.035156 1.09375 -1.664062 1.09375 -2.46875 L 1.09375 -5.921875 C 1.09375 -6.148438 1.082031 -6.285156 1.0625 -6.328125 C 1.039062 -6.367188 0.976562 -6.394531 0.875 -6.40625 L 0.328125 -6.453125 L 0.328125 -6.71875 L 2.703125 -6.71875 L 2.703125 -6.453125 L 2.171875 -6.40625 C 2.054688 -6.394531 1.988281 -6.367188 1.96875 -6.328125 C 1.957031 -6.285156 1.953125 -6.148438 1.953125 -5.921875 L 1.953125 -2.3125 C 1.953125 -1.601562 2.082031 -1.078125 2.34375 -0.734375 C 2.613281 -0.398438 3.023438 -0.234375 3.578125 -0.234375 C 4.128906 -0.234375 4.539062 -0.40625 4.8125 -0.75 C 5.09375 -1.101562 5.234375 -1.613281 5.234375 -2.28125 L 5.234375 -5.921875 C 5.234375 -6.148438 5.222656 -6.285156 5.203125 -6.328125 C 5.179688 -6.367188 5.117188 -6.394531 5.015625 -6.40625 Z M 4.46875 -6.453125 "/></g></g></g><g fill="#ffffff" fill-opacity="1"><g transform="translate(174.134761, 48.351886)"><g><path d="M 2.671875 -0.21875 C 3.109375 -0.21875 3.460938 -0.328125 3.734375 -0.546875 C 4.015625 -0.765625 4.15625 -1.082031 4.15625 -1.5 C 4.15625 -1.832031 4.050781 -2.113281 3.84375 -2.34375 C 3.644531 -2.570312 3.289062 -2.753906 2.78125 -2.890625 L 2.09375 -3.09375 C 1.59375 -3.226562 1.207031 -3.460938 0.9375 -3.796875 C 0.675781 -4.128906 0.546875 -4.53125 0.546875 -5 C 0.546875 -5.320312 0.617188 -5.617188 0.765625 -5.890625 C 0.921875 -6.171875 1.148438 -6.394531 1.453125 -6.5625 C 1.765625 -6.738281 2.15625 -6.828125 2.625 -6.828125 C 3.15625 -6.828125 3.582031 -6.726562 3.90625 -6.53125 C 4.226562 -6.332031 4.453125 -6.078125 4.578125 -5.765625 C 4.703125 -5.460938 4.734375 -5.132812 4.671875 -4.78125 L 3.84375 -4.59375 C 3.925781 -5.207031 3.863281 -5.679688 3.65625 -6.015625 C 3.445312 -6.347656 3.085938 -6.515625 2.578125 -6.515625 C 2.179688 -6.515625 1.863281 -6.40625 1.625 -6.1875 C 1.394531 -5.96875 1.28125 -5.65625 1.28125 -5.25 C 1.28125 -4.925781 1.375 -4.648438 1.5625 -4.421875 C 1.75 -4.191406 2.078125 -4.015625 2.546875 -3.890625 L 3.21875 -3.6875 C 4.320312 -3.382812 4.875 -2.742188 4.875 -1.765625 C 4.875 -1.410156 4.789062 -1.09375 4.625 -0.8125 C 4.46875 -0.53125 4.222656 -0.304688 3.890625 -0.140625 C 3.566406 0.015625 3.160156 0.09375 2.671875 0.09375 C 2.328125 0.09375 2 0.0390625 1.6875 -0.0625 C 1.375 -0.164062 1.101562 -0.34375 0.875 -0.59375 C 0.65625 -0.851562 0.507812 -1.210938 0.4375 -1.671875 L 1.03125 -1.875 C 1.070312 -1.4375 1.171875 -1.097656 1.328125 -0.859375 C 1.484375 -0.617188 1.679688 -0.453125 1.921875 -0.359375 C 2.160156 -0.265625 2.410156 -0.21875 2.671875 -0.21875 Z M 2.671875 -0.21875 "/></g></g></g><g fill="#ffffff" fill-opacity="1"><g transform="translate(184.53328, 48.351886)"><g><path d="M 4.953125 -1.609375 L 5.21875 -1.609375 L 5.21875 0 L 0.46875 0 L 0.46875 -0.25 L 1.015625 -0.3125 C 1.117188 -0.332031 1.179688 -0.359375 1.203125 -0.390625 C 1.222656 -0.429688 1.234375 -0.566406 1.234375 -0.796875 L 1.234375 -5.921875 C 1.234375 -6.148438 1.222656 -6.285156 1.203125 -6.328125 C 1.179688 -6.367188 1.117188 -6.394531 1.015625 -6.40625 L 0.46875 -6.453125 L 0.46875 -6.71875 L 5.078125 -6.71875 L 5.078125 -5.109375 L 4.84375 -5.109375 L 4.546875 -6.15625 C 4.523438 -6.226562 4.503906 -6.28125 4.484375 -6.3125 C 4.460938 -6.351562 4.414062 -6.378906 4.34375 -6.390625 C 4.28125 -6.398438 4.171875 -6.40625 4.015625 -6.40625 L 2.09375 -6.40625 L 2.09375 -3.546875 L 3.421875 -3.546875 C 3.578125 -3.546875 3.6875 -3.550781 3.75 -3.5625 C 3.820312 -3.570312 3.867188 -3.59375 3.890625 -3.625 C 3.910156 -3.664062 3.929688 -3.726562 3.953125 -3.8125 L 4.140625 -4.546875 L 4.40625 -4.546875 L 4.40625 -2.234375 L 4.140625 -2.234375 L 3.953125 -2.984375 C 3.929688 -3.054688 3.910156 -3.109375 3.890625 -3.140625 C 3.867188 -3.179688 3.820312 -3.207031 3.75 -3.21875 C 3.6875 -3.226562 3.578125 -3.234375 3.421875 -3.234375 L 2.09375 -3.234375 L 2.09375 -0.3125 L 4.140625 -0.3125 C 4.296875 -0.3125 4.40625 -0.316406 4.46875 -0.328125 C 4.53125 -0.335938 4.570312 -0.359375 4.59375 -0.390625 C 4.625 -0.429688 4.648438 -0.492188 4.671875 -0.578125 Z M 4.953125 -1.609375 "/></g></g></g><g fill="#ffffff" fill-opacity="1"><g transform="translate(195.248347, 48.351886)"><g><path d="M 4.46875 -6.453125 L 4.46875 -6.71875 L 6.359375 -6.71875 L 6.359375 -6.453125 L 5.8125 -6.40625 C 5.707031 -6.394531 5.644531 -6.367188 5.625 -6.328125 C 5.601562 -6.285156 5.59375 -6.148438 5.59375 -5.921875 L 5.59375 -2.28125 C 5.59375 -1.53125 5.421875 -0.945312 5.078125 -0.53125 C 4.734375 -0.113281 4.203125 0.09375 3.484375 0.09375 C 2.710938 0.09375 2.117188 -0.128906 1.703125 -0.578125 C 1.296875 -1.035156 1.09375 -1.664062 1.09375 -2.46875 L 1.09375 -5.921875 C 1.09375 -6.148438 1.082031 -6.285156 1.0625 -6.328125 C 1.039062 -6.367188 0.976562 -6.394531 0.875 -6.40625 L 0.328125 -6.453125 L 0.328125 -6.71875 L 2.703125 -6.71875 L 2.703125 -6.453125 L 2.171875 -6.40625 C 2.054688 -6.394531 1.988281 -6.367188 1.96875 -6.328125 C 1.957031 -6.285156 1.953125 -6.148438 1.953125 -5.921875 L 1.953125 -2.3125 C 1.953125 -1.601562 2.082031 -1.078125 2.34375 -0.734375 C 2.613281 -0.398438 3.023438 -0.234375 3.578125 -0.234375 C 4.128906 -0.234375 4.539062 -0.40625 4.8125 -0.75 C 5.09375 -1.101562 5.234375 -1.613281 5.234375 -2.28125 L 5.234375 -5.921875 C 5.234375 -6.148438 5.222656 -6.285156 5.203125 -6.328125 C 5.179688 -6.367188 5.117188 -6.394531 5.015625 -6.40625 Z M 4.46875 -6.453125 "/></g></g></g><g fill="#ffffff" fill-opacity="1"><g transform="translate(206.922962, 48.351886)"><g><path d="M 8.015625 -0.25 L 8.015625 0 L 5.640625 0 L 5.640625 -0.25 L 6.1875 -0.3125 C 6.289062 -0.332031 6.351562 -0.363281 6.375 -0.40625 C 6.394531 -0.445312 6.40625 -0.578125 6.40625 -0.796875 L 6.40625 -6.15625 L 4.34375 -0.796875 L 3.671875 -0.796875 L 1.609375 -6.15625 L 1.609375 -0.796875 C 1.609375 -0.578125 1.613281 -0.445312 1.625 -0.40625 C 1.644531 -0.363281 1.707031 -0.332031 1.8125 -0.3125 L 2.359375 -0.25 L 2.359375 0 L 0.46875 0 L 0.46875 -0.25 L 1.015625 -0.3125 C 1.117188 -0.332031 1.179688 -0.363281 1.203125 -0.40625 C 1.222656 -0.445312 1.234375 -0.578125 1.234375 -0.796875 L 1.234375 -5.921875 C 1.234375 -6.148438 1.222656 -6.285156 1.203125 -6.328125 C 1.179688 -6.367188 1.117188 -6.394531 1.015625 -6.40625 L 0.46875 -6.453125 L 0.46875 -6.71875 L 2.28125 -6.71875 L 4.265625 -1.53125 L 6.265625 -6.71875 L 8.015625 -6.71875 L 8.015625 -6.453125 L 7.484375 -6.40625 C 7.367188 -6.394531 7.300781 -6.367188 7.28125 -6.328125 C 7.269531 -6.285156 7.265625 -6.148438 7.265625 -5.921875 L 7.265625 -0.796875 C 7.265625 -0.578125 7.269531 -0.445312 7.28125 -0.40625 C 7.300781 -0.363281 7.367188 -0.332031 7.484375 -0.3125 Z M 8.015625 -0.25 "/></g></g></g><g fill="#ffffff" fill-opacity="1"><g transform="translate(220.40786, 48.351886)"><g><path d="M 2.46875 -3.25 C 2.3125 -3.25 2.179688 -3.300781 2.078125 -3.40625 C 1.972656 -3.507812 1.921875 -3.644531 1.921875 -3.8125 C 1.921875 -3.96875 1.972656 -4.09375 2.078125 -4.1875 C 2.179688 -4.289062 2.3125 -4.34375 2.46875 -4.34375 C 2.625 -4.34375 2.753906 -4.289062 2.859375 -4.1875 C 2.960938 -4.09375 3.015625 -3.96875 3.015625 -3.8125 C 3.015625 -3.644531 2.960938 -3.507812 2.859375 -3.40625 C 2.753906 -3.300781 2.625 -3.25 2.46875 -3.25 Z M 2.46875 -3.25 "/></g></g></g></svg>